HIERARCHY
ROOT hip
{
	OFFSET 0.000000 0.000000 0.000000 
	CHANNELS 6 Xposition Yposition Zposition Xrotation Zrotation Yrotation
	JOINT abdomen
	{
		OFFSET 0.000000 3.402643 0.000000 
		CHANNELS 3 Xrotation Zrotation Yrotation
		JOINT chest
		{
			OFFSET 0.000000 8.438565 -0.680529 
			CHANNELS 3 Xrotation Zrotation Yrotation
			JOINT neck
			{
				OFFSET 0.000000 10.207942 -0.272212 
				CHANNELS 3 Xrotation Zrotation Yrotation
				JOINT head
				{
					OFFSET 0.000000 3.130431 0.000000 
					CHANNELS 3 Xrotation Zrotation Yrotation
					End Site
					{
						OFFSET 0.000000 3.130435 0.000000 
					}
				}
			}
			JOINT lCollar
			{
				OFFSET 3.470700 6.669187 -0.816635 
				CHANNELS 3 Yrotation Zrotation Xrotation
				JOINT lShldr
				{
					OFFSET 3.198488 0.000000 0.000000 
					CHANNELS 3 Zrotation Yrotation Xrotation
					JOINT lForeArm
					{
						OFFSET 10.139888 0.000000 0.000000 
						CHANNELS 3 Yrotation Zrotation Xrotation
						JOINT lHand
						{
							OFFSET 8.370511 0.000000 0.000000 
							CHANNELS 3 Zrotation Yrotation Xrotation
							End Site
							{
								OFFSET 4.083176 0.000000 0.000000 
							}
						}
					}
				}
			}
			JOINT rCollar
			{
				OFFSET -3.470700 6.669187 -0.816635 
				CHANNELS 3 Yrotation Zrotation Xrotation
				JOINT rShldr
				{
					OFFSET -3.198488 0.000000 0.000000 
					CHANNELS 3 Zrotation Yrotation Xrotation
					JOINT rForeArm
					{
						OFFSET -10.139888 0.000000 0.000000 
						CHANNELS 3 Yrotation Zrotation Xrotation
						JOINT rHand
						{
							OFFSET -8.370511 0.000000 0.000000 
							CHANNELS 3 Zrotation Yrotation Xrotation
							End Site
							{
								OFFSET -4.083176 0.000000 0.000000 
							}
						}
					}
				}
			}
		}
	}
	JOINT lThigh
	{
		OFFSET 5.308129 -1.633274 1.361059 
		CHANNELS 3 Xrotation Zrotation Yrotation
		JOINT lShin
		{
			OFFSET -2.041588 -20.007561 0.000000 
			CHANNELS 3 Xrotation Zrotation Yrotation
			JOINT lFoot
			{
				OFFSET 0.000000 -19.190928 -1.224953 
				CHANNELS 3 Xrotation Yrotation Zrotation
				End Site
				{
					OFFSET 0.000000 -2.449906 4.627600 
				}
			}
		}
	}
	JOINT rThigh
	{
		OFFSET -5.308129 -1.633274 1.361059 
		CHANNELS 3 Xrotation Zrotation Yrotation
		JOINT rShin
		{
			OFFSET 2.041588 -20.007561 0.000000 
			CHANNELS 3 Xrotation Zrotation Yrotation
			JOINT rFoot
			{
				OFFSET 0.000000 -19.190928 -1.224953 
				CHANNELS 3 Xrotation Yrotation Zrotation
				End Site
				{
					OFFSET 0.000000 -2.449906 4.627600 
				}
			}
		}
	}
}
MOTION
Frames: 15
Frame Time: 0.016667
-1.650265 52.448139 0.515362 -10.987185 -1.141881 2.002334 29.232561 0.254701 0.233039 -0.447737 2.450260 -2.344826 -5.986343 -1.953058 0.147372 10.402685 1.289041 -0.331947 -5.926366 -13.021973 -0.680409 -58.506008 4.055640 -7.863263 -20.017958 -5.000000 36.692947 -19.521837 -9.995126 15.501342 1.175078 15.518427 -0.821420 58.215630 0.936129 -1.470134 19.782616 5.000000 36.992226 20.184561 -14.308434 4.272691 19.175695 19.704586 8.158103 2.807322 -6.800467 -0.618635 -4.682516 5.957552 -10.180161 21.906584 -7.743814 -19.411497 2.104588 2.121514 0.080822 -5.346399 -7.628864 9.349093 
-1.647740 52.444126 0.519480 -10.997293 -1.151640 2.002334 29.233318 0.279385 0.254475 -0.448573 2.450237 -2.374105 -6.006001 -2.001337 0.154676 10.393306 1.298809 -0.312420 -5.887185 -13.012219 -0.679907 -58.552399 4.033729 -7.841085 -20.029713 -5.000000 36.652035 -19.474461 -10.019051 15.525654 1.165022 15.498923 -0.820410 58.253510 0.953735 -1.479711 19.798525 5.000000 36.889439 20.105356 -14.294753 4.192355 19.197155 19.726088 8.135145 2.815552 -6.797022 -0.609845 -4.664041 5.922350 -10.184854 21.947424 -7.723950 -19.446287 2.095156 2.130275 0.109571 -5.418301 -7.641798 9.330591 
-1.646823 52.443321 0.523534 -10.996951 -1.141881 2.002334 29.233282 0.263524 0.268443 -0.438389 2.450249 -2.374114 -6.025532 -2.001337 0.154676 10.383319 1.298808 -0.322183 -5.867654 -13.012219 -0.679907 -58.579945 4.011256 -7.831610 -20.054985 -5.000000 36.620426 -19.492172 -9.945942 15.576840 1.118901 15.498733 -0.829819 58.262680 0.962289 -1.484655 19.832514 5.000000 36.828579 20.125055 -14.305844 4.132328 19.192844 19.702497 8.140161 2.815553 -6.797022 -0.609845 -4.705596 5.950363 -10.172502 21.928049 -7.743913 -19.431568 2.106769 2.132915 0.090631 -5.410067 -7.653814 9.325895 
-1.646978 52.444668 0.527548 -10.985970 -1.112608 1.992381 29.213203 0.221237 0.270888 -0.428206 2.450260 -2.364357 -6.044962 -1.962714 0.148832 10.373169 1.289039 -0.341710 -5.867533 -13.002466 -0.679404 -58.606792 3.983726 -7.813796 -20.091436 -5.000000 36.574417 -19.569519 -9.811824 15.646620 1.050542 15.498742 -0.829819 58.261372 0.984004 -1.486714 19.884697 5.000000 36.803692 20.208809 -14.322819 4.085636 19.183235 19.683744 8.154459 2.828648 -6.823367 -0.620645 -4.744404 5.953152 -10.138646 21.917555 -7.743845 -19.441507 2.102842 2.109469 0.080782 -5.388093 -7.682951 9.303118 
-1.647121 52.445469 0.531293 -10.975528 -1.093089 1.992384 29.193192 0.190444 0.268060 -0.408257 2.450272 -2.354601 -6.054654 -1.933747 0.144120 10.353477 1.279273 -0.351475 -5.857888 -13.012219 -0.679907 -58.625187 3.959335 -7.817008 -20.127903 -5.000000 36.528412 -19.631010 -9.704125 15.711025 1.001861 15.508503 -0.830324 58.260906 0.987196 -1.500143 19.928692 5.000000 36.784451 20.249023 -14.325600 4.075971 19.193209 19.674280 8.163193 2.828063 -6.844753 -0.611048 -4.787544 5.973715 -10.107202 21.926529 -7.773217 -19.449657 2.126365 2.113549 0.081965 -5.401722 -7.658179 9.291187 
-1.647221 52.444126 0.533969 -10.985632 -1.102848 1.992382 29.193096 0.222339 0.260005 -0.398909 2.450260 -2.364357 -6.035222 -1.972370 0.150293 10.343772 1.269507 -0.351476 -5.867893 -13.031723 -0.680912 -58.656372 3.970533 -7.843997 -20.150265 -5.000000 36.505550 -19.683834 -9.708893 15.724913 1.050542 15.498742 -0.829819 58.281246 0.957065 -1.549743 19.956274 5.000000 36.767616 20.139894 -14.266366 4.184615 19.185715 19.695189 8.156809 2.857825 -6.842967 -0.623632 -4.776963 5.917280 -10.120705 21.924345 -7.753171 -19.434313 2.124656 2.101394 0.081927 -5.369411 -7.678407 9.316562 
-1.647325 52.442791 0.536644 -11.006034 -1.122361 2.002334 29.183596 0.259638 0.265271 -0.390249 2.459999 -2.383869 -6.015767 -2.001337 0.154676 10.324241 1.269507 -0.351476 -5.868133 -13.051228 -0.681916 -58.678574 3.988099 -7.878646 -20.172634 -5.000000 36.482697 -19.729692 -9.725286 15.741658 1.108989 15.488984 -0.829314 58.301033 0.935275 -1.604306 19.983868 5.000000 36.750774 20.041048 -14.207535 4.290684 19.188152 19.706572 8.169191 2.877861 -6.834561 -0.635217 -4.760687 5.932939 -10.114628 21.947542 -7.723942 -19.456274 2.127176 2.084900 0.081968 -5.370878 -7.661933 9.334478 
-1.647385 52.441452 0.538251 -11.015493 -1.102829 2.021674 29.212692 0.257726 0.243587 -0.380484 2.459999 -2.393635 -6.045116 -2.020648 0.157598 10.284681 1.279270 -0.371001 -5.860862 -13.069735 -0.694593 -58.687969 3.970080 -7.889482 -20.214447 -5.000000 36.445713 -19.716011 -9.722236 15.726461 1.099370 15.498735 -0.829819 58.321133 0.915418 -1.637295 20.090267 5.000000 36.624401 20.108381 -14.248271 4.311155 19.198282 19.697359 8.137799 2.887644 -6.841036 -0.636212 -4.733898 5.918816 -10.110792 21.970854 -7.744114 -19.461727 2.145620 2.094386 0.063522 -5.365875 -7.642836 9.374225 
-1.647439 52.440113 0.539587 -11.034888 -1.083290 2.050968 29.251635 0.243060 0.227477 -0.380754 2.469761 -2.413164 -6.084233 -2.039960 0.160519 10.244896 1.289031 -0.400289 -5.851463 -13.098992 -0.696104 -58.686405 3.951627 -7.877912 -20.264545 -5.000000 36.403034 -19.683834 -9.708893 15.724913 1.080133 15.518243 -0.830828 58.330902 0.903607 -1.675548 20.219181 5.000000 36.475204 20.213774 -14.319169 4.313460 19.198528 19.697792 8.067577 2.887937 -6.851483 -0.616783 -4.733324 5.890561 -10.112180 21.988636 -7.754230 -19.514786 2.166140 2.100893 0.084175 -5.377133 -7.636549 9.419451 
-1.648044 52.439846 0.541441 -11.044671 -1.073517 2.070498 29.271084 0.237732 0.214942 -0.371681 2.479511 -2.433107 -6.123295 -2.039960 0.160519 10.214424 1.298788 -0.449325 -5.832299 -13.128252 -0.697615 -58.684856 3.933175 -7.866340 -20.295206 -5.000000 36.377480 -19.680265 -9.687612 15.728315 1.051425 15.557252 -0.832846 58.341148 0.876516 -1.738791 20.359512 5.000000 36.314651 20.278397 -14.443274 4.331285 19.190723 19.691647 8.037490 2.886373 -6.841551 -0.626496 -4.718649 5.903822 -10.116887 22.015512 -7.743542 -19.582233 2.155160 2.083731 0.103117 -5.390099 -7.642639 9.448698 
-1.649487 52.441181 0.544066 -11.045750 -1.093022 2.090209 29.280882 0.246691 0.218230 -0.362065 2.469737 -2.442864 -6.172043 -2.010992 0.156137 10.213270 1.279247 -0.507904 -5.803369 -13.157512 -0.699126 -58.692833 3.905047 -7.860514 -20.303465 -5.000000 36.374771 -19.707958 -9.623933 15.776278 1.013249 15.615769 -0.835872 58.332890 0.818240 -1.852300 20.521980 5.000000 36.154728 20.255508 -14.642426 4.389774 19.183079 19.712320 8.071233 2.894586 -6.838160 -0.666446 -4.750327 5.934413 -10.124773 22.012949 -7.724298 -19.567144 2.131672 2.080503 0.072645 -5.369242 -7.618721 9.449033 
-1.650928 52.442524 0.546693 -11.036716 -1.102768 2.109736 29.281120 0.268844 0.217030 -0.352865 2.459952 -2.462377 -6.211390 -1.990220 0.162865 10.212057 1.269469 -0.566484 -5.782052 -13.197508 -0.691680 -58.700809 3.876920 -7.854016 -20.311728 -5.000000 36.375050 -19.722923 -9.569477 15.802817 0.972336 15.674451 -0.829497 58.334351 0.765362 -1.957329 20.684792 5.000000 35.994843 20.241365 -14.851311 4.444543 19.194410 19.743025 8.079665 2.894928 -6.848708 -0.695756 -4.769330 5.946525 -10.161774 22.020433 -7.705734 -19.571636 2.127013 2.071900 0.042902 -5.351254 -7.620286 9.417186 
-1.649687 52.441181 0.549419 -11.036340 -1.102782 2.090209 29.281191 0.280329 0.211754 -0.323845 2.469714 -2.462377 -6.221006 -2.059270 0.163441 10.182953 1.249939 -0.566485 -5.745268 -13.196529 -0.701140 -58.749660 3.858602 -7.875784 -20.308199 -5.000000 36.410206 -19.705669 -9.508064 15.740602 1.004224 15.664528 -0.838393 58.401920 0.781100 -1.953170 20.670303 5.000000 35.894814 20.202887 -14.806912 4.429998 19.187382 19.735914 8.066215 2.893424 -6.838655 -0.666475 -4.787379 5.976078 -10.116796 22.020433 -7.705737 -19.571636 2.138737 2.073852 0.043843 -5.385992 -7.603583 9.422609 
-1.648452 52.439846 0.552144 -11.036152 -1.102788 2.080445 29.261728 0.305337 0.201225 -0.304590 2.479475 -2.462377 -6.221205 -2.126861 0.173667 10.153851 1.230409 -0.566485 -5.716094 -13.206285 -0.701644 -58.798512 3.840249 -7.897531 -20.309959 -5.000000 36.454357 -19.690069 -9.443346 15.689057 1.023756 15.664525 -0.838393 58.469677 0.791750 -1.957314 20.650225 5.000000 35.785717 20.174452 -14.763295 4.412897 19.187311 19.735792 8.086279 2.906724 -6.843643 -0.677137 -4.772956 5.980829 -10.083643 22.020554 -7.705723 -19.581619 2.145906 2.051899 0.063501 -5.446829 -7.599958 9.422310 
-1.648728 52.439308 0.552400 -11.016976 -1.112548 2.080444 29.252016 0.319615 0.196291 -0.275294 2.479475 -2.452611 -6.231000 -2.136516 0.175128 10.104286 1.220635 -0.605539 -5.694404 -13.217010 -0.692688 -58.835720 3.816460 -7.888527 -20.318214 -5.000000 36.451641 -19.676132 -9.466619 15.691529 1.004522 15.684031 -0.839402 58.509205 0.770970 -2.011907 20.707790 5.000000 35.646603 20.140863 -14.749676 4.445325 19.171844 19.750299 8.089931 2.907037 -6.854114 -0.667458 -4.787753 5.910822 -10.091496 22.009949 -7.705667 -19.581575 2.145905 2.051901 0.063501 -5.424660 -7.580826 9.430984 
